<svg width="32" height="32" viewBox="0 0 32 32" fill="none" xmlns="http://www.w3.org/2000/svg">
<g clip-path="url(#clip0_124_6658)">
<path d="M27.7863 13.9286C27.7863 13.7714 27.6577 13.6429 27.5006 13.6429H25.3577C25.2006 13.6429 25.072 13.7714 25.072 13.9286C25.072 18.9393 21.0113 23 16.0006 23C10.9898 23 6.92913 18.9393 6.92913 13.9286C6.92913 13.7714 6.80056 13.6429 6.64342 13.6429H4.50056C4.34342 13.6429 4.21484 13.7714 4.21484 13.9286C4.21484 19.9536 8.73627 24.925 14.572 25.6286V29.2857H9.3827C8.89342 29.2857 8.50056 29.7964 8.50056 30.4286V31.7143C8.50056 31.8714 8.60056 32 8.72199 32H23.2791C23.4006 32 23.5006 31.8714 23.5006 31.7143V30.4286C23.5006 29.7964 23.1077 29.2857 22.6184 29.2857H17.2863V25.6464C23.1898 25.0036 27.7863 20.0036 27.7863 13.9286ZM16.0006 20C19.3541 20 22.072 17.3143 22.072 14V6C22.072 2.68571 19.3541 0 16.0006 0C12.647 0 9.92913 2.68571 9.92913 6V14C9.92913 17.3143 12.647 20 16.0006 20ZM12.6434 6C12.6434 4.19286 14.1398 2.71429 16.0006 2.71429C17.8613 2.71429 19.3577 4.19286 19.3577 6V14C19.3577 15.8071 17.8613 17.2857 16.0006 17.2857C14.1398 17.2857 12.6434 15.8071 12.6434 14V6Z" fill="#40A9FF"/>
</g>
<defs>
<clipPath id="clip0_124_6658">
<rect width="32" height="32" fill="white"/>
</clipPath>
</defs>
</svg>
