<svg width="24" height="24" viewBox="0 0 24 24" fill="none" xmlns="http://www.w3.org/2000/svg">
<path d="M11.9996 1.71103C6.31833 1.71103 1.71387 6.31549 1.71387 11.9967V21.6396C1.71387 21.9959 2.00047 22.2825 2.35672 22.2825H7.2853C8.23083 22.2825 8.99958 21.5137 8.99958 20.5682V14.9967C8.99958 14.0512 8.23083 13.2825 7.2853 13.2825H3.64244V11.9967C3.64244 7.38157 7.3844 3.6396 11.9996 3.6396C16.6148 3.6396 20.3567 7.38157 20.3567 11.9967V13.2825H16.7139C15.7683 13.2825 14.9996 14.0512 14.9996 14.9967V20.5682C14.9996 21.5137 15.7683 22.2825 16.7139 22.2825H21.6424C21.9987 22.2825 22.2853 21.9959 22.2853 21.6396V11.9967C22.2853 6.31549 17.6808 1.71103 11.9996 1.71103ZM7.07101 15.211V20.3539H3.64244V15.211H7.07101ZM20.3567 20.3539H16.9282V15.211H20.3567V20.3539Z" fill="#262626"/>
</svg>
