<svg width="20" height="20" viewBox="0 0 20 20" fill="none" xmlns="http://www.w3.org/2000/svg">
<path d="M17.6477 5.02589C17.2274 4.05687 16.6215 3.1795 15.8642 2.4433C15.1043 1.70044 14.2086 1.11084 13.2258 0.706691C12.2035 0.282584 11.1187 0.0682983 10.0003 0.0682983C8.88205 0.0682983 7.79722 0.282584 6.7749 0.704459C5.78606 1.11294 4.8999 1.69776 4.13651 2.44107C3.37964 3.17769 2.77382 4.05495 2.35303 5.02366C1.91776 6.02812 1.69678 7.09508 1.69678 8.1933C1.69678 9.76919 2.07401 11.3384 2.81508 12.8518C3.41106 14.0683 4.24365 15.2536 5.29276 16.3808C7.08517 18.3049 8.96463 19.4812 9.49812 19.796C9.64955 19.8854 9.82225 19.9324 9.99812 19.9321C10.1722 19.9321 10.3441 19.8875 10.4981 19.796C11.0316 19.4812 12.9111 18.3049 14.7035 16.3808C15.7526 15.2558 16.5852 14.0683 17.1812 12.8518C17.9267 11.3406 18.3039 9.77365 18.3039 8.19553C18.3039 7.09732 18.0829 6.03035 17.6477 5.02589ZM10.0003 18.2201C8.52937 17.2848 3.30392 13.5817 3.30392 8.19553C3.30392 6.45669 3.99812 4.82276 5.25928 3.59062C6.5249 2.35624 8.20794 1.67544 10.0003 1.67544C11.7928 1.67544 13.4758 2.35624 14.7414 3.59285C16.0026 4.82276 16.6968 6.45669 16.6968 8.19553C16.6968 13.5817 11.4713 17.2848 10.0003 18.2201ZM10.0003 4.4433C7.83071 4.4433 6.07178 6.20223 6.07178 8.37187C6.07178 10.5415 7.83071 12.3004 10.0003 12.3004C12.17 12.3004 13.9289 10.5415 13.9289 8.37187C13.9289 6.20223 12.17 4.4433 10.0003 4.4433ZM11.7682 10.1397C11.5363 10.3723 11.2608 10.5567 10.9574 10.6823C10.654 10.808 10.3287 10.8724 10.0003 10.8719C9.33294 10.8719 8.70571 10.6107 8.23249 10.1397C7.99995 9.90786 7.81556 9.6323 7.68991 9.3289C7.56426 9.0255 7.49984 8.70026 7.50035 8.37187C7.50035 7.70446 7.76151 7.07723 8.23249 6.60401C8.70571 6.1308 9.33294 5.87187 10.0003 5.87187C10.6678 5.87187 11.295 6.1308 11.7682 6.60401C12.2414 7.07723 12.5003 7.70446 12.5003 8.37187C12.5003 9.03928 12.2414 9.66651 11.7682 10.1397Z" fill="white"/>
</svg>
