<svg width="24" height="24" viewBox="0 0 24 24" fill="none" xmlns="http://www.w3.org/2000/svg">
<g clip-path="url(#clip0_109_6863)">
<path d="M21.5356 17.8941H19.6526C19.524 17.8941 19.4035 17.9504 19.3231 18.0495C19.1356 18.2772 18.9347 18.4968 18.7231 18.7057C17.8576 19.5721 16.8325 20.2625 15.7044 20.7388C14.5356 21.2324 13.2794 21.4857 12.0106 21.4834C10.7276 21.4834 9.48472 21.2316 8.31686 20.7388C7.18873 20.2625 6.16358 19.5721 5.29811 18.7057C4.4311 17.8423 3.73977 16.819 3.2624 15.6923C2.76686 14.5245 2.51776 13.2843 2.51776 12.0013C2.51776 10.7182 2.76954 9.47805 3.2624 8.3102C3.73918 7.18252 4.4249 6.16734 5.29811 5.2968C6.17133 4.42627 7.18651 3.74055 8.31686 3.26377C9.48472 2.77091 10.7276 2.51912 12.0106 2.51912C13.2937 2.51912 14.5365 2.76823 15.7044 3.26377C16.8347 3.74055 17.8499 4.42627 18.7231 5.2968C18.9347 5.50841 19.1329 5.72805 19.3231 5.95305C19.4035 6.05216 19.5267 6.10841 19.6526 6.10841H21.5356C21.7044 6.10841 21.8088 5.92091 21.7151 5.77894C19.6606 2.58609 16.066 0.472694 11.9811 0.483408C5.56329 0.49948 0.417755 5.7093 0.482041 12.1191C0.546327 18.4272 5.68383 23.5191 12.0106 23.5191C16.0847 23.5191 19.6633 21.4084 21.7151 18.2236C21.8061 18.0816 21.7044 17.8941 21.5356 17.8941ZM23.9169 11.8325L20.116 8.83252C19.974 8.72002 19.7678 8.8218 19.7678 9.00127V11.037H11.357C11.2392 11.037 11.1428 11.1334 11.1428 11.2513V12.7513C11.1428 12.8691 11.2392 12.9656 11.357 12.9656H19.7678V15.0013C19.7678 15.1807 19.9767 15.2825 20.116 15.17L23.9169 12.17C23.9425 12.15 23.9632 12.1244 23.9774 12.0951C23.9917 12.0659 23.9991 12.0338 23.9991 12.0013C23.9991 11.9687 23.9917 11.9366 23.9774 11.9074C23.9632 11.8782 23.9425 11.8526 23.9169 11.8325V11.8325Z" fill="#FF4D4F" fill-opacity="0.85"/>
</g>
<defs>
<clipPath id="clip0_109_6863">
<rect width="24" height="24" fill="white"/>
</clipPath>
</defs>
</svg>
