<svg width="24" height="24" viewBox="0 0 24 24" fill="none" xmlns="http://www.w3.org/2000/svg">
<path d="M15.5536 16.2058C15.5338 16.1782 15.5076 16.1558 15.4773 16.1404C15.4471 16.125 15.4135 16.1172 15.3795 16.1174H14.1956C14.0215 16.1174 13.9197 16.3157 14.0215 16.4576L15.9983 19.1924C16.084 19.3103 16.2581 19.3103 16.3438 19.1924L19.4027 14.9603C19.5045 14.8183 19.4027 14.6201 19.2286 14.6201H18.042C17.9724 14.6201 17.9081 14.6523 17.8679 14.7085L16.167 17.0603L15.5536 16.2058ZM16.7134 6.47726V5.19154C16.7134 5.07369 16.617 4.97726 16.4992 4.97726H6.21345C6.09559 4.97726 5.99916 5.07369 5.99916 5.19154V6.47726C5.99916 6.59512 6.09559 6.69154 6.21345 6.69154H16.4992C16.617 6.69154 16.7134 6.59512 16.7134 6.47726ZM6.21345 8.8344C6.09559 8.8344 5.99916 8.93083 5.99916 9.04869V10.3344C5.99916 10.4523 6.09559 10.5487 6.21345 10.5487H11.142C11.2599 10.5487 11.3563 10.4523 11.3563 10.3344V9.04869C11.3563 8.93083 11.2599 8.8344 11.142 8.8344H6.21345ZM11.142 21.1023H3.85631V2.24512H18.8563V10.1737C18.8563 10.2915 18.9527 10.388 19.0706 10.388H20.5706C20.6885 10.388 20.7849 10.2915 20.7849 10.1737V1.17369C20.7849 0.699579 20.4018 0.316544 19.9277 0.316544H2.78488C2.31077 0.316544 1.92773 0.699579 1.92773 1.17369V22.1737C1.92773 22.6478 2.31077 23.0308 2.78488 23.0308H11.142C11.2599 23.0308 11.3563 22.9344 11.3563 22.8165V21.3165C11.3563 21.1987 11.2599 21.1023 11.142 21.1023ZM21.9259 12.5094L16.7831 10.7228C16.759 10.7148 16.7376 10.7121 16.7134 10.7121C16.6893 10.7121 16.6652 10.7148 16.6438 10.7228L11.5009 12.5094C11.4589 12.5237 11.4224 12.5507 11.3965 12.5867C11.3706 12.6227 11.3565 12.6659 11.3563 12.7103V19.4362C11.3563 19.5032 11.3858 19.5648 11.4393 19.6049L16.5822 23.6282C16.6197 23.6576 16.6679 23.6737 16.7134 23.6737C16.759 23.6737 16.8072 23.6576 16.8447 23.6282L21.9876 19.6049C22.0385 19.5648 22.0706 19.5032 22.0706 19.4362V12.7103C22.0706 12.6192 22.0117 12.5389 21.9259 12.5094ZM20.4099 18.7371L16.7134 21.6273L13.017 18.7371V13.7362L16.7134 12.4505L20.4099 13.7362V18.7371Z" fill="#262626"/>
</svg>
